<svg width="58" height="25" viewBox="0 0 58 25" fill="none" xmlns="http://www.w3.org/2000/svg">
<path d="M3.92 24H0.016V0.191999H3.952V10.24C4.944 8.704 6.8 7.712 9.072 7.712C12.976 7.712 15.024 10.176 15.024 14.272V24H11.12V15.2C11.12 12.544 9.808 11.264 7.824 11.264C5.36 11.264 3.92 12.992 3.92 15.36V24ZM20.8118 5.024C19.4678 5.024 18.4118 3.968 18.4118 2.656C18.4118 1.344 19.4678 0.32 20.8118 0.32C22.0918 0.32 23.1478 1.344 23.1478 2.656C23.1478 3.968 22.0918 5.024 20.8118 5.024ZM18.8598 24V8.192H22.7638V24H18.8598ZM31.2773 24L25.0053 8.192H29.1653L31.9173 15.456C32.5893 17.344 33.1333 18.976 33.3253 19.84C33.5493 18.848 34.1253 17.184 34.7973 15.456L37.6773 8.192H41.7093L35.1173 24H31.2773ZM50.2443 24.416C45.5403 24.416 42.2443 20.992 42.2443 16.096C42.2443 11.136 45.4763 7.712 50.1163 7.712C54.8523 7.712 57.8603 10.88 57.8603 15.808V16.992L45.9563 17.024C46.2443 19.808 47.7163 21.216 50.3083 21.216C52.4523 21.216 53.8603 20.384 54.3083 18.88H57.9243C57.2523 22.336 54.3723 24.416 50.2443 24.416ZM50.1483 10.912C47.8443 10.912 46.4363 12.16 46.0523 14.528H53.9883C53.9883 12.352 52.4843 10.912 50.1483 10.912Z" fill="#9730FF"/>
</svg>
